<svg width="24" height="24" viewBox="0 0 24 24" fill="inherit" xmlns="http://www.w3.org/2000/svg">
<g id="Icons/Eye On">
<path id="Vector" d="M12.002 16.0294C12.9767 16.0294 13.8047 15.6882 14.4857 15.0059C15.1668 14.3235 15.5073 13.4949 15.5073 12.5201C15.5073 11.5453 15.1662 10.7174 14.4838 10.0363C13.8014 9.35525 12.9728 9.01471 11.998 9.01471C11.0233 9.01471 10.1953 9.35589 9.51426 10.0383C8.83319 10.7206 8.49265 11.5492 8.49265 12.524C8.49265 13.4988 8.83383 14.3267 9.51619 15.0078C10.1986 15.6889 11.0272 16.0294 12.002 16.0294ZM12 14.8449C11.3548 14.8449 10.8063 14.619 10.3547 14.1674C9.90302 13.7157 9.6772 13.1673 9.6772 12.5221C9.6772 11.8768 9.90302 11.3284 10.3547 10.8767C10.8063 10.4251 11.3548 10.1993 12 10.1993C12.6452 10.1993 13.1937 10.4251 13.6453 10.8767C14.097 11.3284 14.3228 11.8768 14.3228 12.5221C14.3228 13.1673 14.097 13.7157 13.6453 14.1674C13.1937 14.619 12.6452 14.8449 12 14.8449ZM12.0012 18.5441C10.0228 18.5441 8.22023 17.9984 6.59338 16.9071C4.96654 15.8157 3.76875 14.354 3 12.5221C3.76875 10.6901 4.96615 9.2284 6.59221 8.13704C8.21826 7.04568 10.0205 6.5 11.9988 6.5C13.9772 6.5 15.7798 7.04568 17.4066 8.13704C19.0335 9.2284 20.2313 10.6901 21 12.5221C20.2313 14.354 19.0338 15.8157 17.4078 16.9071C15.7817 17.9984 13.9795 18.5441 12.0012 18.5441ZM12 17.2537C13.6202 17.2537 15.1078 16.8271 16.4628 15.974C17.8178 15.1209 18.8537 13.9702 19.5706 12.5221C18.8537 11.0739 17.8178 9.92325 16.4628 9.07012C15.1078 8.21699 13.6202 7.79042 12 7.79042C10.3798 7.79042 8.89218 8.21699 7.53721 9.07012C6.18224 9.92325 5.1463 11.0739 4.42938 12.5221C5.1463 13.9702 6.18224 15.1209 7.53721 15.974C8.89218 16.8271 10.3798 17.2537 12 17.2537Z" fill="inherit"/>
</g>
</svg>
