<svg width="24" height="24" viewBox="0 0 24 24" fill="none" xmlns="http://www.w3.org/2000/svg">
<g id="Icons/Eye Off">
<path id="Vector" d="M15.2459 12.9209L14.2798 11.9548C14.4088 11.2423 14.2056 10.6017 13.6701 10.0332C13.1346 9.4646 12.4776 9.24484 11.6989 9.37389L10.7327 8.40773C10.9269 8.3206 11.1259 8.25525 11.33 8.21169C11.534 8.16811 11.7574 8.14633 12 8.14633C12.9761 8.14633 13.8047 8.48686 14.4857 9.16793C15.1668 9.849 15.5073 10.6776 15.5073 11.6537C15.5073 11.8963 15.4856 12.1224 15.442 12.332C15.3984 12.5415 15.3331 12.7378 15.2459 12.9209ZM17.9824 15.5978L17.0327 14.7077C17.5776 14.2919 18.0615 13.8367 18.4845 13.342C18.9075 12.8473 19.2695 12.2846 19.5706 11.6537C18.8537 10.2055 17.8249 9.05486 16.4843 8.20173C15.1437 7.3486 13.6489 6.92204 12 6.92204C11.5842 6.92204 11.1755 6.95071 10.7741 7.00807C10.3726 7.06542 9.9783 7.15145 9.59117 7.26616L8.58862 6.26361C9.13237 6.04743 9.6877 5.88805 10.2546 5.78548C10.8215 5.6829 11.4033 5.63161 12 5.63161C14.0162 5.63161 15.8344 6.18749 17.4546 7.29926C19.0748 8.41103 20.2566 9.86251 21 11.6537C20.6812 12.4224 20.2696 13.1399 19.765 13.8061C19.2604 14.4722 18.6662 15.0695 17.9824 15.5978ZM18.6772 20.5742L15.1963 17.1198C14.7552 17.2831 14.2663 17.4165 13.7297 17.5202C13.1931 17.6239 12.6165 17.6757 12 17.6757C9.97831 17.6757 8.16012 17.1199 6.54541 16.0081C4.93071 14.8963 3.7489 13.4448 3 11.6537C3.31765 10.8937 3.72795 10.1848 4.23089 9.52691C4.73384 8.86901 5.28752 8.29852 5.89193 7.81544L3.50955 5.4066L4.41618 4.5L19.5838 19.6676L18.6772 20.5742ZM6.79853 8.72202C6.34413 9.08379 5.90212 9.51863 5.47252 10.0266C5.04291 10.5345 4.6952 11.0768 4.42938 11.6537C5.1463 13.1018 6.17507 14.2525 7.5157 15.1056C8.85633 15.9587 10.3511 16.3853 12 16.3853C12.3915 16.3853 12.7815 16.3522 13.1697 16.286C13.5579 16.2199 13.8872 16.1515 14.1574 16.0809L13.0688 14.9658C12.9221 15.0253 12.7522 15.0728 12.5592 15.1081C12.3662 15.1434 12.1798 15.161 12 15.161C11.0239 15.161 10.1953 14.8205 9.51426 14.1394C8.83319 13.4583 8.49265 12.6298 8.49265 11.6537C8.49265 11.4794 8.5103 11.2971 8.5456 11.1069C8.58091 10.9166 8.62833 10.7426 8.68788 10.5849L6.79853 8.72202Z" fill="black"/>
</g>
</svg>
